<svg xmlns="http://www.w3.org/2000/svg" viewBox="0 0 600 900" role="img" aria-labelledby="t d">
<title id="t">Portada alternativa de Crisantemo</title><desc id="d">Cubierta minimalista con flores de crisantemo.</desc>
<rect width="600" height="900" fill="#f8f8f6"/>
<text x="300" y="160" text-anchor="middle" font-family="Georgia, serif" font-size="78" fill="#0e544d">Crisantemo</text>
<text x="300" y="215" text-anchor="middle" font-family="Arial, sans-serif" font-size="22" fill="#222">ALICIA CERDÁN IBÁÑEZ</text>
<g transform="translate(300 610)">
<g fill="none" stroke="#0e544d" stroke-width="8" stroke-linecap="round"><path d="M-130 220 C-120 90 -70 0 -5 -105"/><path d="M20 220 C30 70 90 -10 175 -145"/><path d="M-20 220 C-20 90 15 20 75 -70"/></g>
<g stroke="#1d2f2d" stroke-width="3">
<g transform="translate(-70 -90)"><circle r="86" fill="#e9bc32"/><path d="M0-78 C28-44 28 44 0 78 C-28 44-28-44 0-78" fill="#f2d75b"/><path d="M-78 0 C-44-28 44-28 78 0 C44 28-44 28-78 0" fill="#f2d75b"/></g>
<g transform="translate(95 -25)"><circle r="108" fill="#d982ad"/><path d="M0-98 C34-56 34 56 0 98 C-34 56-34-56 0-98" fill="#e8a7c8"/><path d="M-98 0 C-56-34 56-34 98 0 C56 34-56 34-98 0" fill="#e8a7c8"/></g>
<g transform="translate(165 -190)"><circle r="72" fill="#8156bb"/><path d="M0-65 C24-38 24 38 0 65 C-24 38-24-38 0-65" fill="#a87ada"/><path d="M-65 0 C-38-24 38-24 65 0 C38 24-38 24-65 0" fill="#a87ada"/></g>
<g transform="translate(-135 80)"><circle r="92" fill="#d04a3b"/><path d="M0-84 C30-48 30 48 0 84 C-30 48-30-48 0-84" fill="#ec786b"/><path d="M-84 0 C-48-30 48-30 84 0 C48 30-48 30-84 0" fill="#ec786b"/></g>
</g>
</g>
</svg>
